<mxfile host="Electron" agent="Mozilla/5.0 (Windows NT 10.0; Win64; x64) AppleWebKit/537.36 (KHTML, like Gecko) draw.io/24.7.8 Chrome/128.0.6613.36 Electron/32.0.1 Safari/537.36" version="24.7.8">
  <diagram name="Page-1" id="GTyxsDPCTnGVE7ok1OEP">
    <mxGraphModel dx="1122" dy="540" grid="1" gridSize="10" guides="1" tooltips="1" connect="1" arrows="1" fold="1" page="1" pageScale="1" pageWidth="850" pageHeight="1100" math="0" shadow="0">
      <root>
        <mxCell id="0" />
        <mxCell id="1" parent="0" />
        <mxCell id="BOlCOlehrNomLxu8R9RT-9" value="" style="rounded=0;whiteSpace=wrap;html=1;" vertex="1" parent="1">
          <mxGeometry x="100" y="110" width="710" height="480" as="geometry" />
        </mxCell>
        <mxCell id="BOlCOlehrNomLxu8R9RT-1" value="" style="rounded=0;whiteSpace=wrap;html=1;" vertex="1" parent="1">
          <mxGeometry x="120" y="130" width="670" height="60" as="geometry" />
        </mxCell>
        <mxCell id="BOlCOlehrNomLxu8R9RT-2" value="&lt;font style=&quot;font-size: 24px;&quot;&gt;OPERATING SYSTEM&lt;/font&gt;" style="rounded=0;whiteSpace=wrap;html=1;" vertex="1" parent="1">
          <mxGeometry x="120" y="220" width="670" height="260" as="geometry" />
        </mxCell>
        <mxCell id="BOlCOlehrNomLxu8R9RT-3" value="" style="rounded=0;whiteSpace=wrap;html=1;" vertex="1" parent="1">
          <mxGeometry x="120" y="510" width="670" height="60" as="geometry" />
        </mxCell>
        <mxCell id="BOlCOlehrNomLxu8R9RT-4" value="CPU" style="rounded=0;whiteSpace=wrap;html=1;" vertex="1" parent="1">
          <mxGeometry x="140" y="520" width="120" height="40" as="geometry" />
        </mxCell>
        <mxCell id="BOlCOlehrNomLxu8R9RT-5" value="RAM" style="rounded=0;whiteSpace=wrap;html=1;" vertex="1" parent="1">
          <mxGeometry x="270" y="520" width="120" height="40" as="geometry" />
        </mxCell>
        <mxCell id="BOlCOlehrNomLxu8R9RT-6" value="MONITOR" style="rounded=0;whiteSpace=wrap;html=1;" vertex="1" parent="1">
          <mxGeometry x="400" y="520" width="120" height="40" as="geometry" />
        </mxCell>
        <mxCell id="BOlCOlehrNomLxu8R9RT-7" value="KEYBOARD" style="rounded=0;whiteSpace=wrap;html=1;" vertex="1" parent="1">
          <mxGeometry x="530" y="520" width="120" height="40" as="geometry" />
        </mxCell>
        <mxCell id="BOlCOlehrNomLxu8R9RT-8" value="HARD DISK" style="rounded=0;whiteSpace=wrap;html=1;" vertex="1" parent="1">
          <mxGeometry x="660" y="520" width="120" height="40" as="geometry" />
        </mxCell>
        <mxCell id="BOlCOlehrNomLxu8R9RT-10" value="" style="rounded=0;whiteSpace=wrap;html=1;" vertex="1" parent="1">
          <mxGeometry x="140" y="140" width="120" height="40" as="geometry" />
        </mxCell>
        <mxCell id="BOlCOlehrNomLxu8R9RT-11" value="" style="rounded=0;whiteSpace=wrap;html=1;" vertex="1" parent="1">
          <mxGeometry x="270" y="140" width="120" height="40" as="geometry" />
        </mxCell>
        <mxCell id="BOlCOlehrNomLxu8R9RT-12" value="" style="rounded=0;whiteSpace=wrap;html=1;" vertex="1" parent="1">
          <mxGeometry x="400" y="140" width="120" height="40" as="geometry" />
        </mxCell>
        <mxCell id="BOlCOlehrNomLxu8R9RT-13" value="" style="rounded=0;whiteSpace=wrap;html=1;" vertex="1" parent="1">
          <mxGeometry x="660" y="140" width="120" height="40" as="geometry" />
        </mxCell>
        <mxCell id="BOlCOlehrNomLxu8R9RT-14" value="" style="rounded=0;whiteSpace=wrap;html=1;" vertex="1" parent="1">
          <mxGeometry x="530" y="140" width="120" height="40" as="geometry" />
        </mxCell>
      </root>
    </mxGraphModel>
  </diagram>
</mxfile>
